<svg xmlns="http://www.w3.org/2000/svg" version="1.1" xmlns:xlink="http://www.w3.org/1999/xlink" xmlns:svgjs="http://svgjs.dev/svgjs" viewBox="0 0 800 800"><g stroke="hsl(105, 69%, 30%)" fill="none" stroke-linecap="round"><circle r="379.5" cx="400" cy="400" stroke-width="11" stroke-dasharray="39 45" stroke-dashoffset="25" transform="rotate(287, 400, 400)" opacity="1.00"></circle><circle r="363" cx="400" cy="400" stroke-width="11" stroke-dasharray="16 53" stroke-dashoffset="25" transform="rotate(210, 400, 400)" opacity="0.96"></circle><circle r="346.5" cx="400" cy="400" stroke-width="10" stroke-dasharray="21 13" stroke-dashoffset="25" transform="rotate(86, 400, 400)" opacity="0.91"></circle><circle r="330" cx="400" cy="400" stroke-width="10" stroke-dasharray="46 27" stroke-dashoffset="25" transform="rotate(91, 400, 400)" opacity="0.87"></circle><circle r="313.5" cx="400" cy="400" stroke-width="10" stroke-dasharray="28 29" stroke-dashoffset="25" transform="rotate(159, 400, 400)" opacity="0.83"></circle><circle r="297" cx="400" cy="400" stroke-width="10" stroke-dasharray="54 31" stroke-dashoffset="25" transform="rotate(70, 400, 400)" opacity="0.78"></circle><circle r="280.5" cx="400" cy="400" stroke-width="9" stroke-dasharray="13 47" stroke-dashoffset="25" transform="rotate(232, 400, 400)" opacity="0.74"></circle><circle r="264" cx="400" cy="400" stroke-width="9" stroke-dasharray="44 33" stroke-dashoffset="25" transform="rotate(198, 400, 400)" opacity="0.70"></circle><circle r="247.5" cx="400" cy="400" stroke-width="9" stroke-dasharray="39 36" stroke-dashoffset="25" transform="rotate(73, 400, 400)" opacity="0.65"></circle><circle r="231" cx="400" cy="400" stroke-width="9" stroke-dasharray="45 11" stroke-dashoffset="25" transform="rotate(159, 400, 400)" opacity="0.61"></circle><circle r="214.5" cx="400" cy="400" stroke-width="8" stroke-dasharray="42 27" stroke-dashoffset="25" transform="rotate(250, 400, 400)" opacity="0.57"></circle><circle r="198" cx="400" cy="400" stroke-width="8" stroke-dasharray="44 42" stroke-dashoffset="25" transform="rotate(154, 400, 400)" opacity="0.53"></circle><circle r="181.5" cx="400" cy="400" stroke-width="8" stroke-dasharray="21 28" stroke-dashoffset="25" transform="rotate(336, 400, 400)" opacity="0.48"></circle><circle r="165" cx="400" cy="400" stroke-width="7" stroke-dasharray="16 35" stroke-dashoffset="25" transform="rotate(10, 400, 400)" opacity="0.44"></circle><circle r="148.5" cx="400" cy="400" stroke-width="7" stroke-dasharray="53 42" stroke-dashoffset="25" transform="rotate(95, 400, 400)" opacity="0.40"></circle><circle r="132" cx="400" cy="400" stroke-width="7" stroke-dasharray="13 34" stroke-dashoffset="25" transform="rotate(308, 400, 400)" opacity="0.35"></circle><circle r="115.5" cx="400" cy="400" stroke-width="7" stroke-dasharray="25 15" stroke-dashoffset="25" transform="rotate(273, 400, 400)" opacity="0.31"></circle><circle r="99" cx="400" cy="400" stroke-width="6" stroke-dasharray="18 15" stroke-dashoffset="25" transform="rotate(99, 400, 400)" opacity="0.27"></circle><circle r="82.5" cx="400" cy="400" stroke-width="6" stroke-dasharray="42 54" stroke-dashoffset="25" transform="rotate(261, 400, 400)" opacity="0.22"></circle><circle r="66" cx="400" cy="400" stroke-width="6" stroke-dasharray="44 49" stroke-dashoffset="25" transform="rotate(264, 400, 400)" opacity="0.18"></circle><circle r="49.5" cx="400" cy="400" stroke-width="6" stroke-dasharray="21 42" stroke-dashoffset="25" transform="rotate(360, 400, 400)" opacity="0.14"></circle><circle r="33" cx="400" cy="400" stroke-width="5" stroke-dasharray="30 48" stroke-dashoffset="25" transform="rotate(212, 400, 400)" opacity="0.09"></circle><circle r="16.5" cx="400" cy="400" stroke-width="5" stroke-dasharray="32 54" stroke-dashoffset="25" transform="rotate(334, 400, 400)" opacity="0.05"></circle></g></svg>