<svg id="visual" viewBox="0 0 800 1000" width="800" height="1000" xmlns="http://www.w3.org/2000/svg" xmlns:xlink="http://www.w3.org/1999/xlink" version="1.1"><rect x="0" y="0" width="800" height="1000" fill="#931C1C"></rect><path d="M0 404L800 523L800 0L0 0Z" fill="#871400"></path><path d="M0 490L800 768L800 0L0 0Z" fill="#911e02"></path><path d="M0 322L800 643L800 0L0 0Z" fill="#9b2604"></path><path d="M0 328L800 318L800 0L0 0Z" fill="#a52f05"></path><path d="M0 488L800 530L800 0L0 0Z" fill="#af3706"></path><path d="M0 217L800 379L800 0L0 0Z" fill="#b94007"></path><path d="M0 385L800 309L800 0L0 0Z" fill="#c34807"></path><path d="M0 295L800 208L800 0L0 0Z" fill="#cd5108"></path><path d="M0 295L800 204L800 0L0 0Z" fill="#d75909"></path><path d="M0 86L800 128L800 0L0 0Z" fill="#e16209"></path><path d="M0 78L800 84L800 0L0 0Z" fill="#eb6a0a"></path><path d="M0 47L800 27L800 0L0 0Z" fill="#f5730a"></path></svg>