<svg id="visual" viewBox="0 0 2000 5000" width="2000" height="5000" xmlns="http://www.w3.org/2000/svg" xmlns:xlink="http://www.w3.org/1999/xlink" version="1.1"><path d="M0 701L182 701L182 701L364 701L364 851L545 851L545 351L727 351L727 401L909 401L909 401L1091 401L1091 551L1273 551L1273 301L1455 301L1455 701L1636 701L1636 301L1818 301L1818 701L2000 701L2000 751L2000 0L2000 0L1818 0L1818 0L1636 0L1636 0L1455 0L1455 0L1273 0L1273 0L1091 0L1091 0L909 0L909 0L727 0L727 0L545 0L545 0L364 0L364 0L182 0L182 0L0 0Z" fill="#6989fa"></path><path d="M0 1151L182 1151L182 1601L364 1601L364 1701L545 1701L545 751L727 751L727 951L909 951L909 1051L1091 1051L1091 1351L1273 1351L1273 751L1455 751L1455 1551L1636 1551L1636 801L1818 801L1818 1501L2000 1501L2000 1351L2000 749L2000 699L1818 699L1818 299L1636 299L1636 699L1455 699L1455 299L1273 299L1273 549L1091 549L1091 399L909 399L909 399L727 399L727 349L545 349L545 849L364 849L364 699L182 699L182 699L0 699Z" fill="#587efc"></path><path d="M0 2651L182 2651L182 2251L364 2251L364 2901L545 2901L545 1951L727 1951L727 1901L909 1901L909 2451L1091 2451L1091 3351L1273 3351L1273 2151L1455 2151L1455 2451L1636 2451L1636 2951L1818 2951L1818 2751L2000 2751L2000 2451L2000 1349L2000 1499L1818 1499L1818 799L1636 799L1636 1549L1455 1549L1455 749L1273 749L1273 1349L1091 1349L1091 1049L909 1049L909 949L727 949L727 749L545 749L545 1699L364 1699L364 1599L182 1599L182 1149L0 1149Z" fill="#4672fe"></path><path d="M0 3151L182 3151L182 3451L364 3451L364 4001L545 4001L545 3101L727 3101L727 2951L909 2951L909 3251L1091 3251L1091 4301L1273 4301L1273 3551L1455 3551L1455 3401L1636 3401L1636 4151L1818 4151L1818 3601L2000 3601L2000 3151L2000 2449L2000 2749L1818 2749L1818 2949L1636 2949L1636 2449L1455 2449L1455 2149L1273 2149L1273 3349L1091 3349L1091 2449L909 2449L909 1899L727 1899L727 1949L545 1949L545 2899L364 2899L364 2249L182 2249L182 2649L0 2649Z" fill="#2f66ff"></path><path d="M0 5001L182 5001L182 5001L364 5001L364 5001L545 5001L545 5001L727 5001L727 5001L909 5001L909 5001L1091 5001L1091 5001L1273 5001L1273 5001L1455 5001L1455 5001L1636 5001L1636 5001L1818 5001L1818 5001L2000 5001L2000 5001L2000 3149L2000 3599L1818 3599L1818 4149L1636 4149L1636 3399L1455 3399L1455 3549L1273 3549L1273 4299L1091 4299L1091 3249L909 3249L909 2949L727 2949L727 3099L545 3099L545 3999L364 3999L364 3449L182 3449L182 3149L0 3149Z" fill="#0059ff"></path></svg>