<svg xmlns="http://www.w3.org/2000/svg" version="1.1" xmlns:xlink="http://www.w3.org/1999/xlink" xmlns:svgjs="http://svgjs.dev/svgjs" viewBox="0 0 640 800"><g stroke-width="3" stroke="hsl(105, 69%, 30%)" fill="none" stroke-linecap="butt"><line x1="0" y1="0" x2="36" y2="36" opacity="1.00"></line><line x1="36" y1="0" x2="72" y2="36" opacity="1.00"></line><line x1="108" y1="0" x2="72" y2="36" opacity="1.00"></line><line x1="144" y1="0" x2="108" y2="36" opacity="1.00"></line><line x1="144" y1="0" x2="180" y2="36" opacity="1.00"></line><line x1="180" y1="0" x2="216" y2="36" opacity="1.00"></line><line x1="216" y1="0" x2="252" y2="36" opacity="1.00"></line><line x1="288" y1="0" x2="252" y2="36" opacity="1.00"></line><line x1="324" y1="0" x2="288" y2="36" opacity="1.00"></line><line x1="360" y1="0" x2="324" y2="36" opacity="1.00"></line><line x1="396" y1="0" x2="360" y2="36" opacity="1.00"></line><line x1="432" y1="0" x2="396" y2="36" opacity="1.00"></line><line x1="468" y1="0" x2="432" y2="36" opacity="1.00"></line><line x1="504" y1="0" x2="468" y2="36" opacity="1.00"></line><line x1="504" y1="0" x2="540" y2="36" opacity="1.00"></line><line x1="540" y1="0" x2="576" y2="36" opacity="1.00"></line><line x1="576" y1="0" x2="612" y2="36" opacity="1.00"></line><line x1="648" y1="0" x2="612" y2="36" opacity="1.00"></line><line x1="36" y1="36" x2="0" y2="72" opacity="0.96"></line><line x1="36" y1="36" x2="72" y2="72" opacity="0.96"></line><line x1="72" y1="36" x2="108" y2="72" opacity="0.96"></line><line x1="144" y1="36" x2="108" y2="72" opacity="0.96"></line><line x1="180" y1="36" x2="144" y2="72" opacity="0.96"></line><line x1="180" y1="36" x2="216" y2="72" opacity="0.96"></line><line x1="252" y1="36" x2="216" y2="72" opacity="0.96"></line><line x1="288" y1="36" x2="252" y2="72" opacity="0.96"></line><line x1="288" y1="36" x2="324" y2="72" opacity="0.96"></line><line x1="360" y1="36" x2="324" y2="72" opacity="0.96"></line><line x1="360" y1="36" x2="396" y2="72" opacity="0.96"></line><line x1="396" y1="36" x2="432" y2="72" opacity="0.96"></line><line x1="432" y1="36" x2="468" y2="72" opacity="0.96"></line><line x1="504" y1="36" x2="468" y2="72" opacity="0.96"></line><line x1="504" y1="36" x2="540" y2="72" opacity="0.96"></line><line x1="540" y1="36" x2="576" y2="72" opacity="0.96"></line><line x1="576" y1="36" x2="612" y2="72" opacity="0.96"></line><line x1="612" y1="36" x2="648" y2="72" opacity="0.96"></line><line x1="36" y1="72" x2="0" y2="108" opacity="0.91"></line><line x1="72" y1="72" x2="36" y2="108" opacity="0.91"></line><line x1="72" y1="72" x2="108" y2="108" opacity="0.91"></line><line x1="144" y1="72" x2="108" y2="108" opacity="0.91"></line><line x1="180" y1="72" x2="144" y2="108" opacity="0.91"></line><line x1="216" y1="72" x2="180" y2="108" opacity="0.91"></line><line x1="216" y1="72" x2="252" y2="108" opacity="0.91"></line><line x1="252" y1="72" x2="288" y2="108" opacity="0.91"></line><line x1="288" y1="72" x2="324" y2="108" opacity="0.91"></line><line x1="324" y1="72" x2="360" y2="108" opacity="0.91"></line><line x1="360" y1="72" x2="396" y2="108" opacity="0.91"></line><line x1="396" y1="72" x2="432" y2="108" opacity="0.91"></line><line x1="468" y1="72" x2="432" y2="108" opacity="0.91"></line><line x1="504" y1="72" x2="468" y2="108" opacity="0.91"></line><line x1="504" y1="72" x2="540" y2="108" opacity="0.91"></line><line x1="540" y1="72" x2="576" y2="108" opacity="0.91"></line><line x1="576" y1="72" x2="612" y2="108" opacity="0.91"></line><line x1="648" y1="72" x2="612" y2="108" opacity="0.91"></line><line x1="36" y1="108" x2="0" y2="144" opacity="0.87"></line><line x1="72" y1="108" x2="36" y2="144" opacity="0.87"></line><line x1="72" y1="108" x2="108" y2="144" opacity="0.87"></line><line x1="144" y1="108" x2="108" y2="144" opacity="0.87"></line><line x1="144" y1="108" x2="180" y2="144" opacity="0.87"></line><line x1="180" y1="108" x2="216" y2="144" opacity="0.87"></line><line x1="216" y1="108" x2="252" y2="144" opacity="0.87"></line><line x1="252" y1="108" x2="288" y2="144" opacity="0.87"></line><line x1="324" y1="108" x2="288" y2="144" opacity="0.87"></line><line x1="324" y1="108" x2="360" y2="144" opacity="0.87"></line><line x1="396" y1="108" x2="360" y2="144" opacity="0.87"></line><line x1="432" y1="108" x2="396" y2="144" opacity="0.87"></line><line x1="432" y1="108" x2="468" y2="144" opacity="0.87"></line><line x1="504" y1="108" x2="468" y2="144" opacity="0.87"></line><line x1="504" y1="108" x2="540" y2="144" opacity="0.87"></line><line x1="576" y1="108" x2="540" y2="144" opacity="0.87"></line><line x1="576" y1="108" x2="612" y2="144" opacity="0.87"></line><line x1="612" y1="108" x2="648" y2="144" opacity="0.87"></line><line x1="36" y1="144" x2="0" y2="180" opacity="0.83"></line><line x1="72" y1="144" x2="36" y2="180" opacity="0.83"></line><line x1="72" y1="144" x2="108" y2="180" opacity="0.83"></line><line x1="144" y1="144" x2="108" y2="180" opacity="0.83"></line><line x1="144" y1="144" x2="180" y2="180" opacity="0.83"></line><line x1="180" y1="144" x2="216" y2="180" opacity="0.83"></line><line x1="252" y1="144" x2="216" y2="180" opacity="0.83"></line><line x1="288" y1="144" x2="252" y2="180" opacity="0.83"></line><line x1="324" y1="144" x2="288" y2="180" opacity="0.83"></line><line x1="324" y1="144" x2="360" y2="180" opacity="0.83"></line><line x1="360" y1="144" x2="396" y2="180" opacity="0.83"></line><line x1="396" y1="144" x2="432" y2="180" opacity="0.83"></line><line x1="468" y1="144" x2="432" y2="180" opacity="0.83"></line><line x1="504" y1="144" x2="468" y2="180" opacity="0.83"></line><line x1="504" y1="144" x2="540" y2="180" opacity="0.83"></line><line x1="576" y1="144" x2="540" y2="180" opacity="0.83"></line><line x1="612" y1="144" x2="576" y2="180" opacity="0.83"></line><line x1="612" y1="144" x2="648" y2="180" opacity="0.83"></line><line x1="36" y1="180" x2="0" y2="216" opacity="0.79"></line><line x1="36" y1="180" x2="72" y2="216" opacity="0.79"></line><line x1="72" y1="180" x2="108" y2="216" opacity="0.79"></line><line x1="144" y1="180" x2="108" y2="216" opacity="0.79"></line><line x1="180" y1="180" x2="144" y2="216" opacity="0.79"></line><line x1="216" y1="180" x2="180" y2="216" opacity="0.79"></line><line x1="216" y1="180" x2="252" y2="216" opacity="0.79"></line><line x1="288" y1="180" x2="252" y2="216" opacity="0.79"></line><line x1="288" y1="180" x2="324" y2="216" opacity="0.79"></line><line x1="324" y1="180" x2="360" y2="216" opacity="0.79"></line><line x1="396" y1="180" x2="360" y2="216" opacity="0.79"></line><line x1="396" y1="180" x2="432" y2="216" opacity="0.79"></line><line x1="468" y1="180" x2="432" y2="216" opacity="0.79"></line><line x1="468" y1="180" x2="504" y2="216" opacity="0.79"></line><line x1="540" y1="180" x2="504" y2="216" opacity="0.79"></line><line x1="540" y1="180" x2="576" y2="216" opacity="0.79"></line><line x1="612" y1="180" x2="576" y2="216" opacity="0.79"></line><line x1="648" y1="180" x2="612" y2="216" opacity="0.79"></line><line x1="0" y1="216" x2="36" y2="252" opacity="0.74"></line><line x1="72" y1="216" x2="36" y2="252" opacity="0.74"></line><line x1="72" y1="216" x2="108" y2="252" opacity="0.74"></line><line x1="108" y1="216" x2="144" y2="252" opacity="0.74"></line><line x1="180" y1="216" x2="144" y2="252" opacity="0.74"></line><line x1="180" y1="216" x2="216" y2="252" opacity="0.74"></line><line x1="216" y1="216" x2="252" y2="252" opacity="0.74"></line><line x1="288" y1="216" x2="252" y2="252" opacity="0.74"></line><line x1="288" y1="216" x2="324" y2="252" opacity="0.74"></line><line x1="360" y1="216" x2="324" y2="252" opacity="0.74"></line><line x1="360" y1="216" x2="396" y2="252" opacity="0.74"></line><line x1="396" y1="216" x2="432" y2="252" opacity="0.74"></line><line x1="468" y1="216" x2="432" y2="252" opacity="0.74"></line><line x1="504" y1="216" x2="468" y2="252" opacity="0.74"></line><line x1="504" y1="216" x2="540" y2="252" opacity="0.74"></line><line x1="540" y1="216" x2="576" y2="252" opacity="0.74"></line><line x1="612" y1="216" x2="576" y2="252" opacity="0.74"></line><line x1="648" y1="216" x2="612" y2="252" opacity="0.74"></line><line x1="36" y1="252" x2="0" y2="288" opacity="0.70"></line><line x1="72" y1="252" x2="36" y2="288" opacity="0.70"></line><line x1="108" y1="252" x2="72" y2="288" opacity="0.70"></line><line x1="108" y1="252" x2="144" y2="288" opacity="0.70"></line><line x1="180" y1="252" x2="144" y2="288" opacity="0.70"></line><line x1="216" y1="252" x2="180" y2="288" opacity="0.70"></line><line x1="252" y1="252" x2="216" y2="288" opacity="0.70"></line><line x1="252" y1="252" x2="288" y2="288" opacity="0.70"></line><line x1="324" y1="252" x2="288" y2="288" opacity="0.70"></line><line x1="324" y1="252" x2="360" y2="288" opacity="0.70"></line><line x1="396" y1="252" x2="360" y2="288" opacity="0.70"></line><line x1="432" y1="252" x2="396" y2="288" opacity="0.70"></line><line x1="468" y1="252" x2="432" y2="288" opacity="0.70"></line><line x1="504" y1="252" x2="468" y2="288" opacity="0.70"></line><line x1="504" y1="252" x2="540" y2="288" opacity="0.70"></line><line x1="540" y1="252" x2="576" y2="288" opacity="0.70"></line><line x1="612" y1="252" x2="576" y2="288" opacity="0.70"></line><line x1="648" y1="252" x2="612" y2="288" opacity="0.70"></line><line x1="36" y1="288" x2="0" y2="324" opacity="0.66"></line><line x1="72" y1="288" x2="36" y2="324" opacity="0.66"></line><line x1="72" y1="288" x2="108" y2="324" opacity="0.66"></line><line x1="144" y1="288" x2="108" y2="324" opacity="0.66"></line><line x1="180" y1="288" x2="144" y2="324" opacity="0.66"></line><line x1="180" y1="288" x2="216" y2="324" opacity="0.66"></line><line x1="252" y1="288" x2="216" y2="324" opacity="0.66"></line><line x1="288" y1="288" x2="252" y2="324" opacity="0.66"></line><line x1="288" y1="288" x2="324" y2="324" opacity="0.66"></line><line x1="360" y1="288" x2="324" y2="324" opacity="0.66"></line><line x1="396" y1="288" x2="360" y2="324" opacity="0.66"></line><line x1="432" y1="288" x2="396" y2="324" opacity="0.66"></line><line x1="432" y1="288" x2="468" y2="324" opacity="0.66"></line><line x1="504" y1="288" x2="468" y2="324" opacity="0.66"></line><line x1="540" y1="288" x2="504" y2="324" opacity="0.66"></line><line x1="540" y1="288" x2="576" y2="324" opacity="0.66"></line><line x1="576" y1="288" x2="612" y2="324" opacity="0.66"></line><line x1="612" y1="288" x2="648" y2="324" opacity="0.66"></line><line x1="36" y1="324" x2="0" y2="360" opacity="0.62"></line><line x1="36" y1="324" x2="72" y2="360" opacity="0.62"></line><line x1="72" y1="324" x2="108" y2="360" opacity="0.62"></line><line x1="144" y1="324" x2="108" y2="360" opacity="0.62"></line><line x1="144" y1="324" x2="180" y2="360" opacity="0.62"></line><line x1="216" y1="324" x2="180" y2="360" opacity="0.62"></line><line x1="216" y1="324" x2="252" y2="360" opacity="0.62"></line><line x1="252" y1="324" x2="288" y2="360" opacity="0.62"></line><line x1="324" y1="324" x2="288" y2="360" opacity="0.62"></line><line x1="324" y1="324" x2="360" y2="360" opacity="0.62"></line><line x1="396" y1="324" x2="360" y2="360" opacity="0.62"></line><line x1="396" y1="324" x2="432" y2="360" opacity="0.62"></line><line x1="468" y1="324" x2="432" y2="360" opacity="0.62"></line><line x1="504" y1="324" x2="468" y2="360" opacity="0.62"></line><line x1="540" y1="324" x2="504" y2="360" opacity="0.62"></line><line x1="576" y1="324" x2="540" y2="360" opacity="0.62"></line><line x1="612" y1="324" x2="576" y2="360" opacity="0.62"></line><line x1="648" y1="324" x2="612" y2="360" opacity="0.62"></line><line x1="36" y1="360" x2="0" y2="396" opacity="0.57"></line><line x1="72" y1="360" x2="36" y2="396" opacity="0.57"></line><line x1="72" y1="360" x2="108" y2="396" opacity="0.57"></line><line x1="108" y1="360" x2="144" y2="396" opacity="0.57"></line><line x1="144" y1="360" x2="180" y2="396" opacity="0.57"></line><line x1="180" y1="360" x2="216" y2="396" opacity="0.57"></line><line x1="216" y1="360" x2="252" y2="396" opacity="0.57"></line><line x1="252" y1="360" x2="288" y2="396" opacity="0.57"></line><line x1="324" y1="360" x2="288" y2="396" opacity="0.57"></line><line x1="360" y1="360" x2="324" y2="396" opacity="0.57"></line><line x1="396" y1="360" x2="360" y2="396" opacity="0.57"></line><line x1="396" y1="360" x2="432" y2="396" opacity="0.57"></line><line x1="432" y1="360" x2="468" y2="396" opacity="0.57"></line><line x1="468" y1="360" x2="504" y2="396" opacity="0.57"></line><line x1="504" y1="360" x2="540" y2="396" opacity="0.57"></line><line x1="540" y1="360" x2="576" y2="396" opacity="0.57"></line><line x1="612" y1="360" x2="576" y2="396" opacity="0.57"></line><line x1="612" y1="360" x2="648" y2="396" opacity="0.57"></line><line x1="36" y1="396" x2="0" y2="432" opacity="0.53"></line><line x1="36" y1="396" x2="72" y2="432" opacity="0.53"></line><line x1="72" y1="396" x2="108" y2="432" opacity="0.53"></line><line x1="108" y1="396" x2="144" y2="432" opacity="0.53"></line><line x1="180" y1="396" x2="144" y2="432" opacity="0.53"></line><line x1="180" y1="396" x2="216" y2="432" opacity="0.53"></line><line x1="216" y1="396" x2="252" y2="432" opacity="0.53"></line><line x1="252" y1="396" x2="288" y2="432" opacity="0.53"></line><line x1="288" y1="396" x2="324" y2="432" opacity="0.53"></line><line x1="360" y1="396" x2="324" y2="432" opacity="0.53"></line><line x1="396" y1="396" x2="360" y2="432" opacity="0.53"></line><line x1="396" y1="396" x2="432" y2="432" opacity="0.53"></line><line x1="432" y1="396" x2="468" y2="432" opacity="0.53"></line><line x1="504" y1="396" x2="468" y2="432" opacity="0.53"></line><line x1="504" y1="396" x2="540" y2="432" opacity="0.53"></line><line x1="540" y1="396" x2="576" y2="432" opacity="0.53"></line><line x1="576" y1="396" x2="612" y2="432" opacity="0.53"></line><line x1="612" y1="396" x2="648" y2="432" opacity="0.53"></line><line x1="0" y1="432" x2="36" y2="468" opacity="0.49"></line><line x1="36" y1="432" x2="72" y2="468" opacity="0.49"></line><line x1="108" y1="432" x2="72" y2="468" opacity="0.49"></line><line x1="108" y1="432" x2="144" y2="468" opacity="0.49"></line><line x1="144" y1="432" x2="180" y2="468" opacity="0.49"></line><line x1="180" y1="432" x2="216" y2="468" opacity="0.49"></line><line x1="216" y1="432" x2="252" y2="468" opacity="0.49"></line><line x1="252" y1="432" x2="288" y2="468" opacity="0.49"></line><line x1="324" y1="432" x2="288" y2="468" opacity="0.49"></line><line x1="360" y1="432" x2="324" y2="468" opacity="0.49"></line><line x1="360" y1="432" x2="396" y2="468" opacity="0.49"></line><line x1="432" y1="432" x2="396" y2="468" opacity="0.49"></line><line x1="468" y1="432" x2="432" y2="468" opacity="0.49"></line><line x1="468" y1="432" x2="504" y2="468" opacity="0.49"></line><line x1="504" y1="432" x2="540" y2="468" opacity="0.49"></line><line x1="540" y1="432" x2="576" y2="468" opacity="0.49"></line><line x1="576" y1="432" x2="612" y2="468" opacity="0.49"></line><line x1="612" y1="432" x2="648" y2="468" opacity="0.49"></line><line x1="36" y1="468" x2="0" y2="504" opacity="0.44"></line><line x1="72" y1="468" x2="36" y2="504" opacity="0.44"></line><line x1="108" y1="468" x2="72" y2="504" opacity="0.44"></line><line x1="108" y1="468" x2="144" y2="504" opacity="0.44"></line><line x1="180" y1="468" x2="144" y2="504" opacity="0.44"></line><line x1="216" y1="468" x2="180" y2="504" opacity="0.44"></line><line x1="216" y1="468" x2="252" y2="504" opacity="0.44"></line><line x1="288" y1="468" x2="252" y2="504" opacity="0.44"></line><line x1="288" y1="468" x2="324" y2="504" opacity="0.44"></line><line x1="360" y1="468" x2="324" y2="504" opacity="0.44"></line><line x1="360" y1="468" x2="396" y2="504" opacity="0.44"></line><line x1="432" y1="468" x2="396" y2="504" opacity="0.44"></line><line x1="432" y1="468" x2="468" y2="504" opacity="0.44"></line><line x1="468" y1="468" x2="504" y2="504" opacity="0.44"></line><line x1="504" y1="468" x2="540" y2="504" opacity="0.44"></line><line x1="576" y1="468" x2="540" y2="504" opacity="0.44"></line><line x1="612" y1="468" x2="576" y2="504" opacity="0.44"></line><line x1="612" y1="468" x2="648" y2="504" opacity="0.44"></line><line x1="36" y1="504" x2="0" y2="540" opacity="0.40"></line><line x1="36" y1="504" x2="72" y2="540" opacity="0.40"></line><line x1="108" y1="504" x2="72" y2="540" opacity="0.40"></line><line x1="108" y1="504" x2="144" y2="540" opacity="0.40"></line><line x1="180" y1="504" x2="144" y2="540" opacity="0.40"></line><line x1="216" y1="504" x2="180" y2="540" opacity="0.40"></line><line x1="216" y1="504" x2="252" y2="540" opacity="0.40"></line><line x1="252" y1="504" x2="288" y2="540" opacity="0.40"></line><line x1="324" y1="504" x2="288" y2="540" opacity="0.40"></line><line x1="324" y1="504" x2="360" y2="540" opacity="0.40"></line><line x1="396" y1="504" x2="360" y2="540" opacity="0.40"></line><line x1="396" y1="504" x2="432" y2="540" opacity="0.40"></line><line x1="432" y1="504" x2="468" y2="540" opacity="0.40"></line><line x1="468" y1="504" x2="504" y2="540" opacity="0.40"></line><line x1="504" y1="504" x2="540" y2="540" opacity="0.40"></line><line x1="576" y1="504" x2="540" y2="540" opacity="0.40"></line><line x1="576" y1="504" x2="612" y2="540" opacity="0.40"></line><line x1="648" y1="504" x2="612" y2="540" opacity="0.40"></line><line x1="36" y1="540" x2="0" y2="576" opacity="0.36"></line><line x1="36" y1="540" x2="72" y2="576" opacity="0.36"></line><line x1="108" y1="540" x2="72" y2="576" opacity="0.36"></line><line x1="144" y1="540" x2="108" y2="576" opacity="0.36"></line><line x1="180" y1="540" x2="144" y2="576" opacity="0.36"></line><line x1="216" y1="540" x2="180" y2="576" opacity="0.36"></line><line x1="216" y1="540" x2="252" y2="576" opacity="0.36"></line><line x1="252" y1="540" x2="288" y2="576" opacity="0.36"></line><line x1="324" y1="540" x2="288" y2="576" opacity="0.36"></line><line x1="324" y1="540" x2="360" y2="576" opacity="0.36"></line><line x1="360" y1="540" x2="396" y2="576" opacity="0.36"></line><line x1="396" y1="540" x2="432" y2="576" opacity="0.36"></line><line x1="468" y1="540" x2="432" y2="576" opacity="0.36"></line><line x1="504" y1="540" x2="468" y2="576" opacity="0.36"></line><line x1="504" y1="540" x2="540" y2="576" opacity="0.36"></line><line x1="576" y1="540" x2="540" y2="576" opacity="0.36"></line><line x1="576" y1="540" x2="612" y2="576" opacity="0.36"></line><line x1="612" y1="540" x2="648" y2="576" opacity="0.36"></line><line x1="0" y1="576" x2="36" y2="612" opacity="0.32"></line><line x1="36" y1="576" x2="72" y2="612" opacity="0.32"></line><line x1="108" y1="576" x2="72" y2="612" opacity="0.32"></line><line x1="144" y1="576" x2="108" y2="612" opacity="0.32"></line><line x1="180" y1="576" x2="144" y2="612" opacity="0.32"></line><line x1="180" y1="576" x2="216" y2="612" opacity="0.32"></line><line x1="252" y1="576" x2="216" y2="612" opacity="0.32"></line><line x1="288" y1="576" x2="252" y2="612" opacity="0.32"></line><line x1="324" y1="576" x2="288" y2="612" opacity="0.32"></line><line x1="324" y1="576" x2="360" y2="612" opacity="0.32"></line><line x1="396" y1="576" x2="360" y2="612" opacity="0.32"></line><line x1="432" y1="576" x2="396" y2="612" opacity="0.32"></line><line x1="468" y1="576" x2="432" y2="612" opacity="0.32"></line><line x1="504" y1="576" x2="468" y2="612" opacity="0.32"></line><line x1="540" y1="576" x2="504" y2="612" opacity="0.32"></line><line x1="576" y1="576" x2="540" y2="612" opacity="0.32"></line><line x1="576" y1="576" x2="612" y2="612" opacity="0.32"></line><line x1="612" y1="576" x2="648" y2="612" opacity="0.32"></line><line x1="0" y1="612" x2="36" y2="648" opacity="0.27"></line><line x1="72" y1="612" x2="36" y2="648" opacity="0.27"></line><line x1="108" y1="612" x2="72" y2="648" opacity="0.27"></line><line x1="144" y1="612" x2="108" y2="648" opacity="0.27"></line><line x1="144" y1="612" x2="180" y2="648" opacity="0.27"></line><line x1="216" y1="612" x2="180" y2="648" opacity="0.27"></line><line x1="216" y1="612" x2="252" y2="648" opacity="0.27"></line><line x1="252" y1="612" x2="288" y2="648" opacity="0.27"></line><line x1="288" y1="612" x2="324" y2="648" opacity="0.27"></line><line x1="324" y1="612" x2="360" y2="648" opacity="0.27"></line><line x1="360" y1="612" x2="396" y2="648" opacity="0.27"></line><line x1="396" y1="612" x2="432" y2="648" opacity="0.27"></line><line x1="432" y1="612" x2="468" y2="648" opacity="0.27"></line><line x1="468" y1="612" x2="504" y2="648" opacity="0.27"></line><line x1="504" y1="612" x2="540" y2="648" opacity="0.27"></line><line x1="576" y1="612" x2="540" y2="648" opacity="0.27"></line><line x1="576" y1="612" x2="612" y2="648" opacity="0.27"></line><line x1="648" y1="612" x2="612" y2="648" opacity="0.27"></line><line x1="36" y1="648" x2="0" y2="684" opacity="0.23"></line><line x1="72" y1="648" x2="36" y2="684" opacity="0.23"></line><line x1="108" y1="648" x2="72" y2="684" opacity="0.23"></line><line x1="108" y1="648" x2="144" y2="684" opacity="0.23"></line><line x1="180" y1="648" x2="144" y2="684" opacity="0.23"></line><line x1="180" y1="648" x2="216" y2="684" opacity="0.23"></line><line x1="216" y1="648" x2="252" y2="684" opacity="0.23"></line><line x1="252" y1="648" x2="288" y2="684" opacity="0.23"></line><line x1="324" y1="648" x2="288" y2="684" opacity="0.23"></line><line x1="324" y1="648" x2="360" y2="684" opacity="0.23"></line><line x1="360" y1="648" x2="396" y2="684" opacity="0.23"></line><line x1="432" y1="648" x2="396" y2="684" opacity="0.23"></line><line x1="468" y1="648" x2="432" y2="684" opacity="0.23"></line><line x1="468" y1="648" x2="504" y2="684" opacity="0.23"></line><line x1="504" y1="648" x2="540" y2="684" opacity="0.23"></line><line x1="576" y1="648" x2="540" y2="684" opacity="0.23"></line><line x1="576" y1="648" x2="612" y2="684" opacity="0.23"></line><line x1="612" y1="648" x2="648" y2="684" opacity="0.23"></line><line x1="36" y1="684" x2="0" y2="720" opacity="0.19"></line><line x1="36" y1="684" x2="72" y2="720" opacity="0.19"></line><line x1="72" y1="684" x2="108" y2="720" opacity="0.19"></line><line x1="108" y1="684" x2="144" y2="720" opacity="0.19"></line><line x1="144" y1="684" x2="180" y2="720" opacity="0.19"></line><line x1="180" y1="684" x2="216" y2="720" opacity="0.19"></line><line x1="252" y1="684" x2="216" y2="720" opacity="0.19"></line><line x1="252" y1="684" x2="288" y2="720" opacity="0.19"></line><line x1="288" y1="684" x2="324" y2="720" opacity="0.19"></line><line x1="324" y1="684" x2="360" y2="720" opacity="0.19"></line><line x1="360" y1="684" x2="396" y2="720" opacity="0.19"></line><line x1="432" y1="684" x2="396" y2="720" opacity="0.19"></line><line x1="432" y1="684" x2="468" y2="720" opacity="0.19"></line><line x1="504" y1="684" x2="468" y2="720" opacity="0.19"></line><line x1="504" y1="684" x2="540" y2="720" opacity="0.19"></line><line x1="576" y1="684" x2="540" y2="720" opacity="0.19"></line><line x1="612" y1="684" x2="576" y2="720" opacity="0.19"></line><line x1="648" y1="684" x2="612" y2="720" opacity="0.19"></line><line x1="36" y1="720" x2="0" y2="756" opacity="0.15"></line><line x1="36" y1="720" x2="72" y2="756" opacity="0.15"></line><line x1="72" y1="720" x2="108" y2="756" opacity="0.15"></line><line x1="108" y1="720" x2="144" y2="756" opacity="0.15"></line><line x1="144" y1="720" x2="180" y2="756" opacity="0.15"></line><line x1="216" y1="720" x2="180" y2="756" opacity="0.15"></line><line x1="216" y1="720" x2="252" y2="756" opacity="0.15"></line><line x1="288" y1="720" x2="252" y2="756" opacity="0.15"></line><line x1="324" y1="720" x2="288" y2="756" opacity="0.15"></line><line x1="324" y1="720" x2="360" y2="756" opacity="0.15"></line><line x1="396" y1="720" x2="360" y2="756" opacity="0.15"></line><line x1="396" y1="720" x2="432" y2="756" opacity="0.15"></line><line x1="468" y1="720" x2="432" y2="756" opacity="0.15"></line><line x1="468" y1="720" x2="504" y2="756" opacity="0.15"></line><line x1="504" y1="720" x2="540" y2="756" opacity="0.15"></line><line x1="576" y1="720" x2="540" y2="756" opacity="0.15"></line><line x1="612" y1="720" x2="576" y2="756" opacity="0.15"></line><line x1="612" y1="720" x2="648" y2="756" opacity="0.15"></line><line x1="0" y1="756" x2="36" y2="792" opacity="0.10"></line><line x1="36" y1="756" x2="72" y2="792" opacity="0.10"></line><line x1="108" y1="756" x2="72" y2="792" opacity="0.10"></line><line x1="108" y1="756" x2="144" y2="792" opacity="0.10"></line><line x1="144" y1="756" x2="180" y2="792" opacity="0.10"></line><line x1="216" y1="756" x2="180" y2="792" opacity="0.10"></line><line x1="252" y1="756" x2="216" y2="792" opacity="0.10"></line><line x1="252" y1="756" x2="288" y2="792" opacity="0.10"></line><line x1="288" y1="756" x2="324" y2="792" opacity="0.10"></line><line x1="324" y1="756" x2="360" y2="792" opacity="0.10"></line><line x1="360" y1="756" x2="396" y2="792" opacity="0.10"></line><line x1="432" y1="756" x2="396" y2="792" opacity="0.10"></line><line x1="432" y1="756" x2="468" y2="792" opacity="0.10"></line><line x1="468" y1="756" x2="504" y2="792" opacity="0.10"></line><line x1="540" y1="756" x2="504" y2="792" opacity="0.10"></line><line x1="540" y1="756" x2="576" y2="792" opacity="0.10"></line><line x1="576" y1="756" x2="612" y2="792" opacity="0.10"></line><line x1="612" y1="756" x2="648" y2="792" opacity="0.10"></line><line x1="36" y1="792" x2="0" y2="828" opacity="0.06"></line><line x1="72" y1="792" x2="36" y2="828" opacity="0.06"></line><line x1="72" y1="792" x2="108" y2="828" opacity="0.06"></line><line x1="108" y1="792" x2="144" y2="828" opacity="0.06"></line><line x1="144" y1="792" x2="180" y2="828" opacity="0.06"></line><line x1="180" y1="792" x2="216" y2="828" opacity="0.06"></line><line x1="216" y1="792" x2="252" y2="828" opacity="0.06"></line><line x1="252" y1="792" x2="288" y2="828" opacity="0.06"></line><line x1="324" y1="792" x2="288" y2="828" opacity="0.06"></line><line x1="360" y1="792" x2="324" y2="828" opacity="0.06"></line><line x1="396" y1="792" x2="360" y2="828" opacity="0.06"></line><line x1="396" y1="792" x2="432" y2="828" opacity="0.06"></line><line x1="468" y1="792" x2="432" y2="828" opacity="0.06"></line><line x1="504" y1="792" x2="468" y2="828" opacity="0.06"></line><line x1="540" y1="792" x2="504" y2="828" opacity="0.06"></line><line x1="576" y1="792" x2="540" y2="828" opacity="0.06"></line><line x1="612" y1="792" x2="576" y2="828" opacity="0.06"></line><line x1="648" y1="792" x2="612" y2="828" opacity="0.06"></line></g></svg>