<svg id="visual" viewBox="0 0 500 200" width="500" height="200" xmlns="http://www.w3.org/2000/svg" xmlns:xlink="http://www.w3.org/1999/xlink" version="1.1"><path d="M0 37L45 33L91 29L136 17L182 35L227 31L273 21L318 29L364 19L409 15L455 35L500 41L500 0L455 0L409 0L364 0L318 0L273 0L227 0L182 0L136 0L91 0L45 0L0 0Z" fill="#00cc29"></path><path d="M0 75L45 105L91 89L136 113L182 95L227 97L273 53L318 93L364 79L409 71L455 107L500 83L500 39L455 33L409 13L364 17L318 27L273 19L227 29L182 33L136 15L91 27L45 31L0 35Z" fill="#00a72c"></path><path d="M0 119L45 127L91 127L136 131L182 137L227 119L273 87L318 123L364 107L409 91L455 133L500 131L500 81L455 105L409 69L364 77L318 91L273 51L227 95L182 93L136 111L91 87L45 103L0 73Z" fill="#00842b"></path><path d="M0 175L45 183L91 177L136 169L182 183L227 173L273 177L318 171L364 177L409 173L455 179L500 189L500 129L455 131L409 89L364 105L318 121L273 85L227 117L182 135L136 129L91 125L45 125L0 117Z" fill="#006225"></path><path d="M0 201L45 201L91 201L136 201L182 201L227 201L273 201L318 201L364 201L409 201L455 201L500 201L500 187L455 177L409 171L364 175L318 169L273 175L227 171L182 181L136 167L91 175L45 181L0 173Z" fill="#03421d"></path></svg>